# xmcd
#
# Track frame offsets: 
#        150
#        15233
#        26805
#        43073
#        57428
#        72484
#        84716
#        103527
#        122550
#        140577
#        155574
#
# Disc length: 2301 seconds
#
# Revision: 0
# Processed by: cddbd v1.5.2PL0 Copyright (c) Steve Scherf et al.
# Submitted via: ExactAudioCopy v0.99pb5
#
DISCID=9508fb0b
DTITLE=Joe E. - "Love Got In My Way"
DYEAR=1976
DGENRE=Soul
TTITLE0=Come On Sign
TTITLE1=Thinkin' About Me, Thinkin' About You
TTITLE2=It's Always Been You
TTITLE3=Love Is Just A Feeling
TTITLE4=Mother Nature
TTITLE5=Love Got In My Way
TTITLE6=Find Your Place In Time
TTITLE7=It's Getting Harder To Love You
TTITLE8=Live It Like It Is
TTITLE9=A Table For Two For One
TTITLE10=Love Got In My Way (Extended)
EXTD=
EXTT0=
EXTT1=
EXTT2=
EXTT3=
EXTT4=
EXTT5=
EXTT6=
EXTT7=
EXTT8=
EXTT9=
EXTT10=
PLAYORDER=
